<svg width="213" height="27" viewBox="0 0 213 27" fill="none" xmlns="http://www.w3.org/2000/svg">
<path d="M2.01198 20.6118V8.05182H6.05198C7.43198 8.05182 8.48532 8.40182 9.21198 9.10182C9.94532 9.79515 10.312 10.7385 10.312 11.9318C10.312 13.1118 9.94532 14.0485 9.21198 14.7418C8.48532 15.4285 7.43198 15.7718 6.05198 15.7718H3.59198V20.6118H2.01198ZM3.59198 14.4118H6.05198C6.92532 14.4118 7.58532 14.1885 8.03198 13.7418C8.48532 13.2951 8.71198 12.6918 8.71198 11.9318C8.71198 11.1585 8.48532 10.5418 8.03198 10.0818C7.58532 9.62182 6.92532 9.39182 6.05198 9.39182H3.59198V14.4118ZM16.3362 20.8518C15.4762 20.8518 14.7095 20.6618 14.0362 20.2818C13.3695 19.9018 12.8429 19.3385 12.4562 18.5918C12.0695 17.8451 11.8762 16.9251 11.8762 15.8318C11.8762 14.7318 12.0695 13.8118 12.4562 13.0718C12.8429 12.3251 13.3695 11.7618 14.0362 11.3818C14.7095 11.0018 15.4762 10.8118 16.3362 10.8118C17.1895 10.8118 17.9495 11.0018 18.6162 11.3818C19.2895 11.7618 19.8162 12.3251 20.1962 13.0718C20.5829 13.8118 20.7762 14.7318 20.7762 15.8318C20.7762 16.9251 20.5829 17.8451 20.1962 18.5918C19.8162 19.3385 19.2895 19.9018 18.6162 20.2818C17.9495 20.6618 17.1895 20.8518 16.3362 20.8518ZM16.2962 19.4918C16.9162 19.4918 17.4429 19.3451 17.8762 19.0518C18.3095 18.7518 18.6362 18.3285 18.8562 17.7818C19.0829 17.2351 19.1962 16.5851 19.1962 15.8318C19.1962 14.6918 18.9595 13.7951 18.4862 13.1418C18.0129 12.4818 17.3095 12.1518 16.3762 12.1518C15.7495 12.1518 15.2195 12.3018 14.7862 12.6018C14.3595 12.8951 14.0329 13.3185 13.8062 13.8718C13.5862 14.4185 13.4762 15.0718 13.4762 15.8318C13.4762 16.9585 13.7129 17.8518 14.1862 18.5118C14.6662 19.1651 15.3695 19.4918 16.2962 19.4918ZM21.9037 11.0518H23.5237L25.9637 19.0318H25.7637L28.1437 11.5118H29.4437L31.8037 19.0518H31.6237L34.0637 11.0518H35.6237L32.4837 20.6118H30.9637L28.6437 13.5518H28.8837L26.5837 20.6118H25.0637L21.9037 11.0518ZM41.1259 20.8518C40.2992 20.8518 39.5592 20.6418 38.9059 20.2218C38.2592 19.7951 37.7459 19.2051 37.3659 18.4518C36.9926 17.6985 36.8059 16.8318 36.8059 15.8518C36.8059 14.8051 36.9926 13.9051 37.3659 13.1518C37.7392 12.3985 38.2492 11.8218 38.8959 11.4218C39.5492 11.0151 40.2926 10.8118 41.1259 10.8118C41.8526 10.8118 42.4726 10.9585 42.9859 11.2518C43.4992 11.5451 43.9126 11.9418 44.2259 12.4418C44.5392 12.9418 44.7559 13.5085 44.8759 14.1418C45.0026 14.7685 45.0392 15.4185 44.9859 16.0918H38.0659V15.1318H43.9559L43.4959 15.4318C43.5159 15.0385 43.4926 14.6451 43.4259 14.2518C43.3659 13.8585 43.2492 13.4985 43.0759 13.1718C42.9026 12.8385 42.6592 12.5718 42.3459 12.3718C42.0326 12.1718 41.6326 12.0718 41.1459 12.0718C40.5326 12.0718 40.0192 12.2285 39.6059 12.5418C39.1926 12.8551 38.8826 13.2685 38.6759 13.7818C38.4692 14.2885 38.3659 14.8385 38.3659 15.4318V16.0718C38.3659 16.7385 38.4659 17.3351 38.6659 17.8618C38.8726 18.3885 39.1792 18.8051 39.5859 19.1118C39.9926 19.4185 40.5059 19.5718 41.1259 19.5718C41.7459 19.5718 42.2559 19.4218 42.6559 19.1218C43.0559 18.8218 43.2992 18.3785 43.3859 17.7918H45.0059C44.9059 18.4251 44.6792 18.9718 44.3259 19.4318C43.9726 19.8851 43.5226 20.2351 42.9759 20.4818C42.4292 20.7285 41.8126 20.8518 41.1259 20.8518ZM47.8293 20.6118V11.0318H49.3893V20.6118H47.8293ZM48.9093 16.2918C48.9093 15.0785 49.026 14.0718 49.2593 13.2718C49.4927 12.4651 49.8327 11.8651 50.2793 11.4718C50.7327 11.0718 51.2827 10.8718 51.9293 10.8718C52.1427 10.8718 52.336 10.8885 52.5093 10.9218C52.6893 10.9485 52.8693 10.9918 53.0493 11.0518L52.9493 12.5918C52.7627 12.5318 52.5593 12.4818 52.3393 12.4418C52.1193 12.3951 51.9227 12.3718 51.7493 12.3718C51.1827 12.3718 50.726 12.5351 50.3793 12.8618C50.0327 13.1818 49.7793 13.6351 49.6193 14.2218C49.466 14.8085 49.3893 15.4985 49.3893 16.2918H48.9093ZM58.1259 20.8518C57.2992 20.8518 56.5592 20.6418 55.9059 20.2218C55.2592 19.7951 54.7459 19.2051 54.3659 18.4518C53.9926 17.6985 53.8059 16.8318 53.8059 15.8518C53.8059 14.8051 53.9926 13.9051 54.3659 13.1518C54.7392 12.3985 55.2492 11.8218 55.8959 11.4218C56.5492 11.0151 57.2926 10.8118 58.1259 10.8118C58.8526 10.8118 59.4726 10.9585 59.9859 11.2518C60.4992 11.5451 60.9126 11.9418 61.2259 12.4418C61.5392 12.9418 61.7559 13.5085 61.8759 14.1418C62.0026 14.7685 62.0392 15.4185 61.9859 16.0918H55.0659V15.1318H60.9559L60.4959 15.4318C60.5159 15.0385 60.4926 14.6451 60.4259 14.2518C60.3659 13.8585 60.2492 13.4985 60.0759 13.1718C59.9026 12.8385 59.6592 12.5718 59.3459 12.3718C59.0326 12.1718 58.6326 12.0718 58.1459 12.0718C57.5326 12.0718 57.0192 12.2285 56.6059 12.5418C56.1926 12.8551 55.8826 13.2685 55.6759 13.7818C55.4692 14.2885 55.3659 14.8385 55.3659 15.4318V16.0718C55.3659 16.7385 55.4659 17.3351 55.6659 17.8618C55.8726 18.3885 56.1792 18.8051 56.5859 19.1118C56.9926 19.4185 57.5059 19.5718 58.1259 19.5718C58.7459 19.5718 59.2559 19.4218 59.6559 19.1218C60.0559 18.8218 60.2992 18.3785 60.3859 17.7918H62.0059C61.9059 18.4251 61.6792 18.9718 61.3259 19.4318C60.9726 19.8851 60.5226 20.2351 59.9759 20.4818C59.4292 20.7285 58.8126 20.8518 58.1259 20.8518ZM68.2493 20.8518C67.476 20.8518 66.766 20.6451 66.1193 20.2318C65.4727 19.8118 64.956 19.2251 64.5693 18.4718C64.1827 17.7118 63.9893 16.8185 63.9893 15.7918C63.9893 14.7718 64.1793 13.8885 64.5593 13.1418C64.9393 12.3951 65.4427 11.8218 66.0693 11.4218C66.7027 11.0151 67.396 10.8118 68.1493 10.8118C68.8493 10.8118 69.4627 10.9818 69.9893 11.3218C70.5227 11.6618 70.936 12.1518 71.2293 12.7918C71.5227 13.4318 71.6693 14.2051 71.6693 15.1118H71.0693C71.0693 14.4785 70.9427 13.9451 70.6893 13.5118C70.4427 13.0785 70.1193 12.7518 69.7193 12.5318C69.3193 12.3051 68.8893 12.1918 68.4293 12.1918C67.9093 12.1918 67.4327 12.3385 66.9993 12.6318C66.5727 12.9185 66.2293 13.3318 65.9693 13.8718C65.716 14.4051 65.5893 15.0451 65.5893 15.7918C65.5893 16.5518 65.716 17.2051 65.9693 17.7518C66.2293 18.2985 66.5727 18.7185 66.9993 19.0118C67.4327 19.3051 67.9093 19.4518 68.4293 19.4518C68.8627 19.4518 69.2793 19.3385 69.6793 19.1118C70.086 18.8851 70.4193 18.5551 70.6793 18.1218C70.9393 17.6818 71.0693 17.1518 71.0693 16.5318H71.6693C71.6693 17.4585 71.516 18.2451 71.2093 18.8918C70.9093 19.5318 70.4993 20.0185 69.9793 20.3518C69.466 20.6851 68.8893 20.8518 68.2493 20.8518ZM71.3293 20.6118L71.0693 18.3718V6.97182H72.6293V20.6118H71.3293ZM85.3109 20.8518C84.6709 20.8518 84.0909 20.6851 83.5709 20.3518C83.0576 20.0185 82.6476 19.5318 82.3409 18.8918C82.0409 18.2451 81.8909 17.4585 81.8909 16.5318H82.4909C82.4909 17.1518 82.6176 17.6818 82.8709 18.1218C83.1309 18.5551 83.4642 18.8851 83.8709 19.1118C84.2776 19.3385 84.7042 19.4518 85.1509 19.4518C85.6642 19.4518 86.1342 19.3051 86.5609 19.0118C86.9876 18.7185 87.3276 18.2985 87.5809 17.7518C87.8409 17.2051 87.9709 16.5518 87.9709 15.7918C87.9709 15.0451 87.8442 14.4051 87.5909 13.8718C87.3376 13.3318 86.9942 12.9185 86.5609 12.6318C86.1342 12.3385 85.6576 12.1918 85.1309 12.1918C84.6776 12.1918 84.2476 12.3051 83.8409 12.5318C83.4409 12.7518 83.1142 13.0785 82.8609 13.5118C82.6142 13.9451 82.4909 14.4785 82.4909 15.1118H81.8909C81.8909 14.2051 82.0376 13.4318 82.3309 12.7918C82.6309 12.1518 83.0442 11.6618 83.5709 11.3218C84.0976 10.9818 84.7109 10.8118 85.4109 10.8118C86.1642 10.8118 86.8542 11.0151 87.4809 11.4218C88.1142 11.8218 88.6209 12.3951 89.0009 13.1418C89.3809 13.8885 89.5709 14.7718 89.5709 15.7918C89.5709 16.8185 89.3776 17.7118 88.9909 18.4718C88.6042 19.2251 88.0876 19.8118 87.4409 20.2318C86.7942 20.6451 86.0842 20.8518 85.3109 20.8518ZM80.9309 20.6118V6.97182H82.4909V18.3718L82.0309 20.6118H80.9309ZM90.9564 11.0518H92.6964L95.8164 19.2518H95.4564L97.8764 11.0518H99.4764L95.8764 22.5318C95.5764 23.4918 95.1764 24.2318 94.6764 24.7518C94.1764 25.2718 93.5364 25.5318 92.7564 25.5318C92.3364 25.5318 91.9364 25.4718 91.5564 25.3518C91.183 25.2318 90.7964 25.0585 90.3964 24.8318V23.3918C90.7497 23.6718 91.0897 23.8718 91.4164 23.9918C91.7497 24.1118 92.0964 24.1718 92.4564 24.1718C92.8564 24.1718 93.1897 24.0451 93.4564 23.7918C93.7297 23.5385 93.9564 23.2118 94.1364 22.8118C94.3164 22.4185 94.4697 22.0051 94.5964 21.5718L94.8764 20.6118L90.9564 11.0518Z" fill="white"/>
<path d="M131.904 23.1929H118.285C118.12 23.193 117.958 23.1466 117.819 23.0591C117.679 22.9716 117.566 22.8464 117.494 22.698C117.422 22.5495 117.393 22.3838 117.411 22.2197C117.429 22.0557 117.493 21.8999 117.595 21.7704L121.45 16.8721C121.63 16.6428 121.736 16.364 121.754 16.0729C121.772 15.7817 121.701 15.4921 121.55 15.2424L116.27 6.51811C116.119 6.26976 116.037 5.98566 116.032 5.69502C116.027 5.40439 116.1 5.1177 116.243 4.86446C116.385 4.61121 116.593 4.40054 116.844 4.2541C117.095 4.10766 117.381 4.03074 117.671 4.03125H130.093C130.254 4.03133 130.412 4.07571 130.55 4.15953C130.687 4.24336 130.799 4.36339 130.873 4.50652C130.947 4.64964 130.98 4.81034 130.969 4.97105C130.958 5.13176 130.903 5.28628 130.81 5.41772L127.566 9.98934C127.404 10.217 127.313 10.4868 127.303 10.7656C127.292 11.0445 127.363 11.3203 127.507 11.5594L133.162 20.9414C133.298 21.1656 133.372 21.4217 133.377 21.6838C133.381 21.9458 133.316 22.2044 133.188 22.4331C133.061 22.6619 132.874 22.8527 132.649 22.9862C132.423 23.1196 132.166 23.1909 131.904 23.1929Z" fill="white"/>
<g clip-path="url(#clip0_42_235)">
<path d="M142.442 20.314C141.812 19.8487 141.284 19.2583 140.891 18.5797C140.499 17.9011 140.251 17.1489 140.162 16.3701H143.244C143.427 17.2098 143.908 17.9544 144.599 18.4653C145.401 18.9951 146.351 19.2542 147.311 19.2048C148.098 19.2384 148.879 19.046 149.56 18.6502C149.822 18.496 150.036 18.2745 150.183 18.0089C150.329 17.7433 150.401 17.4435 150.392 17.1404C150.396 16.9142 150.352 16.6896 150.262 16.4822C150.171 16.2748 150.037 16.0894 149.869 15.9386C149.497 15.6068 149.054 15.3644 148.574 15.23C148.05 15.23 147.342 14.8909 146.448 14.7061C145.463 14.5454 144.494 14.2979 143.552 13.9666C142.813 13.7396 142.152 13.313 141.641 12.734C141.082 12.0619 140.796 11.204 140.84 10.3307C140.801 9.68965 140.927 9.04926 141.208 8.47162C141.489 7.89399 141.914 7.39867 142.442 7.03366C143.689 6.22089 145.145 5.78809 146.633 5.78809C148.121 5.78809 149.577 6.22089 150.824 7.03366C151.97 7.94344 152.73 9.25346 152.95 10.7004H150.146C149.978 9.92002 149.514 9.23516 148.851 8.79002C148.158 8.3628 147.355 8.14848 146.54 8.17372C145.828 8.12959 145.12 8.30152 144.507 8.66683C144.28 8.80509 144.092 8.9998 143.963 9.23198C143.833 9.46415 143.766 9.72588 143.768 9.99177C143.755 10.1981 143.794 10.4044 143.88 10.5925C143.966 10.7805 144.096 10.9445 144.26 11.0701C144.604 11.3715 145.017 11.5832 145.462 11.6864C146.13 11.881 146.809 12.0354 147.496 12.1487C148.54 12.3317 149.57 12.5892 150.577 12.919C151.361 13.1545 152.065 13.6023 152.611 14.2131C153.197 14.92 153.494 15.8227 153.443 16.7398C153.463 17.4077 153.326 18.0708 153.042 18.6758C152.759 19.2807 152.336 19.8105 151.81 20.2217C150.523 21.1502 148.956 21.6072 147.372 21.5158C145.644 21.6426 143.919 21.2221 142.442 20.314Z" fill="white"/>
<path d="M154.768 3.58226C154.582 3.40919 154.433 3.19944 154.331 2.96615C154.229 2.73285 154.176 2.48103 154.176 2.22648C154.176 1.97192 154.229 1.7201 154.331 1.48681C154.433 1.25351 154.582 1.04376 154.768 0.870699C155.153 0.512048 155.66 0.313697 156.186 0.316088C156.723 0.302427 157.244 0.501796 157.634 0.870699C157.821 1.04376 157.97 1.25351 158.072 1.48681C158.173 1.7201 158.226 1.97192 158.226 2.22648C158.226 2.48103 158.173 2.73285 158.072 2.96615C157.97 3.19944 157.821 3.40919 157.634 3.58226C157.244 3.95116 156.723 4.15053 156.186 4.13687C155.66 4.13926 155.153 3.94091 154.768 3.58226ZM157.85 21.4537H154.768V6.26297H157.85V21.4537Z" fill="white"/>
<path d="M159.667 21.3616V6.17082H162.748V8.29692C163.304 7.55035 163.994 6.91296 164.782 6.41718C165.486 6.05032 166.268 5.86001 167.062 5.86257C168 5.84435 168.926 6.07857 169.743 6.54056C170.103 6.74953 170.417 7.02915 170.666 7.36279C170.915 7.69643 171.093 8.07718 171.191 8.48179C171.622 7.6419 172.289 6.94632 173.11 6.48094C173.932 6.01556 174.871 5.80059 175.813 5.86257C176.512 5.81094 177.215 5.91394 177.87 6.16423C178.525 6.41453 179.116 6.80607 179.603 7.31088C180.508 8.4898 180.957 9.95608 180.866 11.4397V21.3616H177.785V11.9328C177.863 11.0037 177.612 10.0765 177.076 9.31361C176.841 9.0125 176.535 8.77371 176.186 8.61795C175.837 8.46219 175.455 8.39425 175.073 8.4201C174.673 8.39939 174.273 8.4658 173.9 8.61475C173.528 8.7637 173.192 8.99155 172.917 9.28277C172.459 9.80042 172.141 10.4262 171.992 11.1008C171.798 12.0327 171.716 12.9842 171.746 13.9356V21.3616H168.664V11.9328C168.726 11.0008 168.465 10.0758 167.925 9.31361C167.676 9.01958 167.364 8.78636 167.012 8.63149C166.659 8.47662 166.276 8.40427 165.891 8.4201C165.477 8.40598 165.065 8.49052 164.689 8.66666C164.326 8.82127 164.009 9.06498 163.765 9.3753C163.33 9.85669 163.023 10.4393 162.872 11.07C162.664 12.0106 162.571 12.9727 162.594 13.9356V21.3616H159.667Z" fill="white"/>
<path d="M193.807 6.87969C194.851 7.55326 195.675 8.517 196.179 9.65275C196.727 10.9549 197.01 12.3535 197.01 13.7663C197.01 15.1792 196.727 16.5778 196.179 17.8799C195.668 19.0196 194.846 19.9915 193.807 20.6838C192.756 21.3459 191.535 21.6885 190.294 21.6699C189.413 21.6911 188.538 21.512 187.736 21.1461C186.899 20.6808 186.181 20.0267 185.641 19.2357V27.0005H182.56V6.17105H185.641V8.29716C186.193 7.52447 186.908 6.88261 187.736 6.41742C188.53 6.02655 189.409 5.83615 190.294 5.86281C191.541 5.83854 192.765 6.19315 193.807 6.87969ZM187.49 9.15982C186.819 9.6388 186.287 10.2874 185.949 11.0394C185.543 11.8844 185.342 12.8136 185.364 13.7509C185.346 14.6979 185.546 15.6363 185.949 16.4933C186.27 17.2555 186.805 17.9082 187.49 18.3729C188.151 18.8257 188.937 19.0626 189.739 19.0509C190.333 19.0654 190.922 18.9388 191.458 18.6817C191.993 18.4246 192.46 18.0442 192.82 17.5717C193.563 16.4413 193.958 15.1186 193.958 13.7663C193.958 12.4141 193.563 11.0914 192.82 9.96099C192.46 9.48851 191.993 9.10811 191.458 8.85102C190.922 8.59392 190.333 8.46753 189.739 8.48203C188.939 8.48363 188.157 8.71919 187.49 9.15982Z" fill="white"/>
<path d="M201.943 21.3614C200.98 21.4368 200.024 21.1512 199.261 20.5603C198.932 20.1826 198.684 19.7421 198.53 19.2654C198.377 18.7887 198.321 18.2857 198.368 17.787V0.500977H201.449V16.9858C201.411 17.4648 201.507 17.945 201.727 18.3725C201.888 18.5284 202.083 18.6455 202.297 18.7149C202.51 18.7843 202.737 18.8042 202.959 18.773H203.822V21.2997L201.943 21.3614Z" fill="white"/>
<path d="M204.684 21.3616V6.17087H207.765V8.11192C208.296 7.37154 209.007 6.77789 209.83 6.3864C210.645 6.02682 211.527 5.84816 212.418 5.86263H212.696V8.94393H211.894C211.377 8.9107 210.859 8.98381 210.371 9.1587C209.884 9.33359 209.437 9.6066 209.059 9.96081C208.579 10.5094 208.216 11.1506 207.994 11.8449C207.771 12.5392 207.693 13.2717 207.765 13.9973V21.4848L204.684 21.3616Z" fill="white"/>
</g>
<defs>
<clipPath id="clip0_42_235">
<rect width="72.4721" height="26.7765" fill="white" transform="translate(140.163 0.223633)"/>
</clipPath>
</defs>
</svg>
